# xmcd
# 
# Track frame offsets:
#     150
#     11180
#     31593
#     50333
#     63158
#     78371
#     90614
#     102984
#     113966
#     129554
#     146359
#     159943
#     175913
#     184765
#     193390
#     205430
#     214805
#     226966
#     242031
#     253585
# 
# Disc length: 3554
# 
# Revision: 1
# Processed by: cddbd v1.5.2PL0 Copyright (c) Steve Scherf et al.
# Submitted via: fre:ac v1.0.17
# 
DISCID=130de014
DTITLE=Hazy Osterwald - mit Sextett - Jetset - Entertainers, CD 3
DYEAR=0
DGENRE=Jazz
TTITLE0=Line Up
TTITLE1=Peg O' My Heart
TTITLE2=Teach Me Tonight
TTITLE3=Honey Suckel Rose
TTITLE4=Tomahawk
TTITLE5=Chocolata
TTITLE6=Whisky-Time
TTITLE7=St. Louis Cha-Cha-Cha
TTITLE8=Charleston-Medley a. Marchetta b. Five Foot Two, Eyes Of Blue c. If I Knew Suzie
TTITLE9=Milestones
TTITLE10=Fly Me To The Moon
TTITLE11=Recado
TTITLE12=Sunday, Monday Or Always
TTITLE13=Do The Surf
TTITLE14=The Call
TTITLE15=Glücklich wie noch nie
TTITLE16=Abschied im September
TTITLE17=Carascho
TTITLE18=Apollo Countdown
TTITLE19=Una Casa Portuguesa
EXTD=
EXTT0=
EXTT1=
EXTT2=
EXTT3=
EXTT4=
EXTT5=
EXTT6=
EXTT7=
EXTT8=
EXTT9=
EXTT10=
EXTT11=
EXTT12=
EXTT13=
EXTT14=
EXTT15=
EXTT16=
EXTT17=
EXTT18=
EXTT19=
PLAYORDER=
